Simulation
nRows=48
nColumns=15
endheader
time  TH_x TH_y TH_z SC_y  SC_z  SC_x  AC_y  AC_z  AC_x  GH_y  GH_z  GH_yy  EL_x  PS_y
8.6175  0.000000  0.000000  0.000000  -34.82674347506305  2.568396640525804  -7.380492225588452  41.325058197313446  12.776696711091866  4.112379467141581  108.22423158988411  4.944951569596409  -93.27112060357915  20.584215031311853  120.000000
8.67495  0.000000  0.000000  0.000000  -34.54069584628516  2.556045941882824  -7.600733740180224  40.8459587754113  12.575189976723822  3.801989525071402  100.1572979861921  5.528565361993117  -85.10362948936306  20.521545763698292  120.000000
8.7324  0.000000  0.000000  0.000000  -34.31488554065318  2.5865663518592354  -7.831055443476014  40.390885628856985  12.391478970448466  3.5428164964174704  93.33749771680701  6.666354705832709  -77.90992087260251  20.628730181621574  120.000000
8.78985  0.000000  0.000000  0.000000  -34.215071781139756  2.7137575757530565  -8.021114067345856  39.96689709552756  12.210506452384067  3.365275854901898  88.94935937713377  8.427540087007268  -72.9079724665677  20.886269815176526  120.000000
8.8473  0.000000  0.000000  0.000000  -34.29665492960407  3.012706003723727  -8.128524540042225  39.58608915486792  12.025002174421873  3.2891337435669623  86.94197589460357  10.839792208826147  -70.14017544923028  21.234146451183786  120.000000
8.90475  0.000000  0.000000  0.000000  -34.59199742851992  3.564423377425869  -8.113552310528728  39.257397823218184  11.830855249184937  3.330144871046305  86.71228139937861  13.892940817943899  -69.13235207261367  21.601040475655807  120.000000
8.9622  0.000000  0.000000  0.000000  -35.100202346973845  4.432750666335761  -7.933700994731262  38.9825185028086  11.624814071956502  3.508316351696624  87.63130232210035  17.524906535988933  -69.39254516448294  21.92764471674643  120.000000
9.01965  0.000000  0.000000  0.000000  -35.78718517315035  5.63924262833781  -7.540841412071404  38.76108433215487  11.409988021318545  3.844568411785307  89.20157498139835  21.615734082559566  -70.5502352147304  22.17659372827766  120.000000
9.0771  0.000000  0.000000  0.000000  -36.6018629958796  7.172500566304972  -6.878188907216376  38.602244273926594  11.192478701360587  4.360581350752138  91.0595807670307  26.01423483022611  -72.34707859633751  22.33491043140797  120.000000
9.13455  0.000000  0.000000  0.000000  -37.499581357698354  8.999512527843816  -5.880667032224738  38.528758925437245  10.97906317847613  5.074480356587297  92.92577302122076  30.568494957315675  -74.58109887328493  22.406349902095478  120.000000
9.192  0.000000  0.000000  0.000000  -38.46091810949974  11.060480074780806  -4.483986626961583  38.57072858860966  10.777299832493233  5.991332293930921  94.57195137823527  35.13533423223431  -77.07140616383164  22.394908776807664  120.000000
9.24945  0.000000  0.000000  0.000000  -39.4984732788205  13.274809072682245  -2.631854010281435  38.75675059441951  10.58990371353643  7.10400530636095  95.82804620046943  39.58310144657629  -79.65777874217346  22.296994332707076  120.000000
9.3069  0.000000  0.000000  0.000000  -40.650394849547105  15.54884921937975  -0.2829929887717391  39.110039046523184  10.411785809908224  8.395710018649055  96.58488377550142  43.79665909623432  -82.20026984316485  22.102018005595674  120.000000
9.36435  0.000000  0.000000  0.000000  -41.96754210835753  17.786245497307384  2.580735505319727  39.64816420853462  10.234855903593393  9.83934279690789  96.78937817105209  47.67980400993699  -84.5789354543492  21.799128957213256  120.000000
9.421800000000001  0.000000  0.000000  0.000000  -43.50108510630762  19.89138061207141  5.94506205746776  40.380365369820105  10.052574089755296  11.397610165344576  96.43677409705964  51.15975859173118  -86.69904547159035  21.389925091969697  120.000000
9.47925  0.000000  0.000000  0.000000  -45.28516312368234  21.766713843274626  9.752445916042982  41.302907077271676  9.854937430789  13.027081788537123  95.5677409998405  54.1945611272862  -88.49623069250605  20.896384707759946  120.000000
9.5367  0.000000  0.000000  0.000000  -47.313732304270914  23.320995200687236  13.892141188372614  42.39899257264281  9.630783400100084  14.67512446637301  94.25963209324186  56.77382716593514  -89.93341959898999  20.35832608730733  120.000000
9.59415  0.000000  0.000000  0.000000  -49.53244684656768  24.485832608200827  18.199860187472368  43.63490880365438  9.374248996500867  16.274205904186513  92.61020155563435  58.91240942124993  -90.99304418114032  19.82188086236492  120.000000
9.6516  0.000000  0.000000  0.000000  -51.836464151807476  25.232509405272232  22.472705184505532  44.95254156817176  9.08817164869952  17.747617212609224  90.73537647489611  60.64082525519628  -91.67402373294878  19.328635986171104  120.000000
9.70905  0.000000  0.000000  0.000000  -54.081519344774684  25.58500549455699  26.49369728533236  46.273007294579344  8.782303614361975  19.02010235655925  88.77347644069584  62.00060194239409  -91.99529995272812  18.908541119056657  120.000000
9.7665  0.000000  0.000000  0.000000  -56.1050594234597  25.616901876688615  30.055860118355092  47.50729628433839  8.467783492431433  20.026703293181946  86.88061592435437  63.036604783190874  -91.99903745903553  18.580218210508246  120.000000
9.82395  0.000000  0.000000  0.000000  -57.75802356343659  25.43694895880477  32.98409318989768  48.567497995658066  8.155199673700821  20.71670340038427  85.2174944795373  63.78955734045408  -91.75048513915532  18.35354249193097  120.000000
9.8814  0.000000  0.000000  0.000000  -58.92586085772362  25.160518226710206  35.144556962923396  49.37426629983131  7.855295142312011  21.055118315898472  83.9286571110847  64.28992929357108  -91.33029268062526  18.230836227554992  120.000000
9.93885  0.000000  0.000000  0.000000  -59.534638668669125  24.883050966085225  36.444103167122194  49.86473184096951  7.579835741873682  21.023888458663613  83.12274835050604  64.55651565421321  -90.82130820525124  18.202799036235206  120.000000
9.9963  0.000000  0.000000  0.000000  -59.546284003738144  24.66240066514575  36.82433316560338  50.00217259905666  7.3432468299738405  20.621791884214286  82.85627384625295  64.59919669719916  -90.29110450213008  18.24868364850227  120.000000
10.05375  0.000000  0.000000  0.000000  -58.95343512019469  24.51124821434025  36.256972510987225  49.78202541882495  7.160873839586721  19.867201481729534  83.12602510736517  64.42152208954423  -89.77444292380949  18.340201372245847  120.000000
10.1112  0.000000  0.000000  0.000000  -57.78021183075231  24.394854057581114  34.746779299593015  49.231598745726366  7.049549794902936  18.799743796872924  83.86789097270116  64.02061952160837  -89.25716925969532  18.4481125199243  120.000000
10.16865  0.000000  0.000000  0.000000  -56.0899592934284  24.23535990605226  32.34346586921789  48.40250541306954  7.030746378424155  17.480688243824922  84.96326116841942  63.38426341530244  -88.66758933902543  18.54560079763849  120.000000
10.2261  0.000000  0.000000  0.000000  -53.99023252227384  23.9239590981475  29.152098815423187  47.36098555527427  7.130001679330841  15.99152839114634  86.25307126096985  62.48872305793727  -87.88598505790014  18.61101871667894  120.000000
10.28355  0.000000  0.000000  0.000000  -51.62726734747166  23.34910313541739  25.332793812783265  46.182449860333406  7.3740816395004005  14.427816546092874  87.55557023731798  61.301495120525374  -86.77274800486921  18.630820759028055  120.000000
10.341000000000001  0.000000  0.000000  0.000000  -49.16563948449504  22.42707303224252  21.079951169267538  44.94493965405447  7.780457385879787  12.890664405050197  88.68565213300397  59.78722464930856  -85.20565887566009  18.60672305794789  120.000000
10.39845  0.000000  0.000000  0.000000  -46.75889432972388  21.1259367219817  16.588827936317536  43.72200992353955  8.352971864507483  11.473416420391665  89.47166946161587  57.915210602970106  -83.10760393161412  18.5667787522369  120.000000
10.4559  0.000000  0.000000  0.000000  -44.518358735265636  19.473078060200802  12.025810428728352  42.574502641813666  9.08276952000472  10.252617653275026  89.77451956760594  55.66898675029516  -80.4596553630382  18.571884079704695  120.000000
10.51335  0.000000  0.000000  0.000000  -42.50247848307347  17.534952897918938  7.513852859436653  41.54039993793959  9.949667026503988  9.287402542273108  89.50257417196691  53.05249454130729  -77.29509168785607  18.70412629344576  120.000000
10.5708  0.000000  0.000000  0.000000  -40.72724275238869  15.39766625947467  3.13492317407473  40.62891184291584  10.93021102469341  8.61481977523864  88.60958460847974  50.088506748319354  -73.6810959393259  19.037310832867252  120.000000
10.62825  0.000000  0.000000  0.000000  -39.18229763858835  13.15071188187333  -1.0555660912050777  39.83222389912784  12.007115745452039  8.247978633669305  87.08341409319698  46.81802412957766  -69.69762713880398  19.603670796488615  120.000000
10.6857  0.000000  0.000000  0.000000  -37.846571689479696  10.881887532084622  -5.013759927382012  39.14062332675628  13.165564281497211  8.182421685808277  84.94161317607151  43.301600674693695  -65.4286787803305  20.372354585986987  120.000000
10.74315  0.000000  0.000000  0.000000  -36.696548787564204  8.671803121392424  -8.69948369587147  38.55191253933366  14.389240982663223  8.399794767432537  82.23117700227118  39.61426497853529  -60.95498519601126  21.25632273469853  120.000000
10.8006  0.000000  0.000000  0.000000  -35.71512745766743  6.594631141729543  -12.075145842010663  38.06964221079813  15.655111184704081  8.870014250634426  79.03557427883904  35.83550928557727  -56.35946811410835  22.14365170521568  120.000000
10.85805  0.000000  0.000000  0.000000  -34.89636108629309  4.7131488962444985  -15.106874764996698  37.69626806440323  16.933735591470576  9.551211135970416  75.47618437165063  32.03990164235761  -51.730503020484534  22.929005573923433  120.000000
10.9155  0.000000  0.000000  0.000000  -34.249961061811064  3.0734711941617587  -17.76197868889205  37.41651703103105  18.189989227407217  10.397774872847693  71.71091832598185  28.291857509295397  -47.169580444705744  23.53431923932598  120.000000
10.97295  0.000000  0.000000  0.000000  -33.80120515464357  1.7125287192728527  -20.00989360477091  37.197876431334116  19.393106275601617  11.362387054077121  67.92337872595972  24.650196187760375  -42.79065384893974  23.911585444111914  120.000000
11.0304  0.000000  0.000000  0.000000  -33.57881332783361  0.6685711241577147  -21.827691300226476  37.009335887026396  20.53531652505414  12.387634743371871  64.30756152963797  21.17901346393603  -38.721545975439746  24.03453085345066  120.000000
11.08785  0.000000  0.000000  0.000000  -33.59839225524265  -0.02685486644511086  -23.206742357486007  36.84082052670988  21.640862042711834  13.402330668920435  61.072395635583845  17.949600116896573  -35.120505427545154  23.88297843109615  120.000000
11.1453  0.000000  0.000000  0.000000  -33.856623422717114  -0.3808018327743864  -24.15649602092651  36.68910262513467  22.74732914514354  14.341118031981859  58.49471617987823  15.011289576382882  -32.225689328889914  23.438095032470347  120.000000
11.20275  0.000000  0.000000  0.000000  -34.34011944382127  -0.4650887499657322  -24.707066108866456  36.54368581225919  23.87815141922707  15.174361873559173  56.97065235673846  12.375288848478455  -30.40764133045883  22.675375182581856  120.000000
11.260200000000001  0.000000  0.000000  0.000000  -35.02411423771506  -0.37303598036090735  -24.918646014417032  36.41440921343939  25.03695951839966  15.899731967144895  57.11456985443558  10.041224971379899  -30.266435978473194  21.576310604202742  120.000000
11.31765  0.000000  0.000000  0.000000  -35.87875800231144  -0.2055544217232949  -24.88048368600023  36.33627633528137  26.20612885126039  16.520367629041708  59.92088659377099  8.018615134641319  -32.794063726293544  20.127704156413817  120.000000
